<mxfile host="Electron" agent="Mozilla/5.0 (Windows NT 10.0; Win64; x64) AppleWebKit/537.36 (KHTML, like Gecko) draw.io/24.7.5 Chrome/126.0.6478.183 Electron/31.3.0 Safari/537.36" version="24.7.5">
  <diagram name="Page-1" id="EmNGIrZxWridmKG07m5n">
    <mxGraphModel dx="1687" dy="993" grid="1" gridSize="10" guides="1" tooltips="1" connect="1" arrows="1" fold="1" page="1" pageScale="1" pageWidth="850" pageHeight="1100" math="0" shadow="0">
      <root>
        <mxCell id="0" />
        <mxCell id="1" parent="0" />
        <mxCell id="9J69JPXahBDmnuKBIGHt-2" value="ΠΑΡΑΘΥΡΟ 1" style="strokeWidth=1;shadow=0;dashed=0;align=center;html=1;shape=mxgraph.mockup.containers.window;align=left;verticalAlign=top;spacingLeft=8;strokeColor2=#008cff;strokeColor3=#c4c4c4;fontColor=#666666;mainText=;fontSize=17;labelBackgroundColor=none;whiteSpace=wrap;container=1;" vertex="1" parent="1">
          <mxGeometry x="90" y="700" width="550" height="380" as="geometry" />
        </mxCell>
        <mxCell id="9J69JPXahBDmnuKBIGHt-5" value="&lt;font style=&quot;font-size: 11px;&quot;&gt;ΕΠΙΛΕΞΤΕ ΧΡΗΣΤΗ&lt;/font&gt;" style="html=1;shadow=0;dashed=0;shape=mxgraph.bootstrap.rrect;rSize=5;strokeColor=none;strokeWidth=1;fillColor=#6C767D;fontColor=#ffffff;whiteSpace=wrap;align=center;verticalAlign=middle;fontStyle=0;fontSize=14;spacingRight=20;" vertex="1" parent="9J69JPXahBDmnuKBIGHt-2">
          <mxGeometry x="192.5" y="160" width="165" height="30" as="geometry" />
        </mxCell>
        <mxCell id="9J69JPXahBDmnuKBIGHt-6" value="" style="shape=triangle;direction=south;fillColor=#ffffff;strokeColor=none;perimeter=none;" vertex="1" parent="9J69JPXahBDmnuKBIGHt-5">
          <mxGeometry x="1" y="0.5" width="10" height="5" relative="1" as="geometry">
            <mxPoint x="-17" y="-2.5" as="offset" />
          </mxGeometry>
        </mxCell>
        <mxCell id="9J69JPXahBDmnuKBIGHt-8" value="ΔΙΑΧΕΙΡΗΣΗ ΧΡΗΣΤΩΝ" style="rounded=1;html=1;shadow=0;dashed=0;whiteSpace=wrap;fontSize=10;fillColor=#666666;align=center;strokeColor=#4D4D4D;fontColor=#ffffff;" vertex="1" parent="9J69JPXahBDmnuKBIGHt-2">
          <mxGeometry x="222.25" y="210" width="105.5" height="40" as="geometry" />
        </mxCell>
        <mxCell id="9J69JPXahBDmnuKBIGHt-9" value="ΠΑΡΑΘΥΡΟ 2" style="strokeWidth=1;shadow=0;dashed=0;align=center;html=1;shape=mxgraph.mockup.containers.window;align=left;verticalAlign=top;spacingLeft=8;strokeColor2=#008cff;strokeColor3=#c4c4c4;fontColor=#666666;mainText=;fontSize=17;labelBackgroundColor=none;whiteSpace=wrap;container=1;" vertex="1" parent="1">
          <mxGeometry x="110" y="1310" width="550" height="380" as="geometry" />
        </mxCell>
        <mxCell id="9J69JPXahBDmnuKBIGHt-15" value="ΔΗΜΙΟΥΡΓΙΑ&amp;nbsp; ΧΡΗΣΤΗ" style="rounded=1;html=1;shadow=0;dashed=0;whiteSpace=wrap;fontSize=10;fillColor=#666666;align=center;strokeColor=#4D4D4D;fontColor=#ffffff;" vertex="1" parent="9J69JPXahBDmnuKBIGHt-9">
          <mxGeometry x="206.13" y="170" width="137.75" height="16.88" as="geometry" />
        </mxCell>
        <mxCell id="9J69JPXahBDmnuKBIGHt-16" value="&lt;i&gt;&lt;font style=&quot;font-size: 13px;&quot;&gt;Εισάγετε έδω...&lt;/font&gt;&lt;/i&gt;" style="strokeWidth=1;shadow=0;dashed=0;align=center;html=1;shape=mxgraph.mockup.text.textBox;fontColor=#666666;align=left;fontSize=17;spacingLeft=4;spacingTop=-3;whiteSpace=wrap;strokeColor=#666666;mainText=" vertex="1" parent="9J69JPXahBDmnuKBIGHt-9">
          <mxGeometry x="200" y="130" width="150" height="30" as="geometry" />
        </mxCell>
        <mxCell id="9J69JPXahBDmnuKBIGHt-17" value="ΕΙΣΑΓΕΤΑΙ ΕΝΑ ΝΕΟ ΟΝΟΜΑ ΧΡΗΣΤΗ" style="text;html=1;align=center;verticalAlign=middle;resizable=0;points=[];autosize=1;strokeColor=none;fillColor=none;" vertex="1" parent="9J69JPXahBDmnuKBIGHt-9">
          <mxGeometry x="155" y="100" width="240" height="30" as="geometry" />
        </mxCell>
        <mxCell id="9J69JPXahBDmnuKBIGHt-79" value="&lt;i&gt;DROP YOUR FILE HERE&lt;/i&gt;" style="rounded=1;whiteSpace=wrap;html=1;dashed=1;dashPattern=8 8;" vertex="1" parent="9J69JPXahBDmnuKBIGHt-9">
          <mxGeometry x="168.07" y="250" width="213.87" height="90" as="geometry" />
        </mxCell>
        <mxCell id="9J69JPXahBDmnuKBIGHt-81" value="ΦΟΡΤΩΣΤΕ ΕΝΑ ΗΔΗ ΥΠΑΡΧΩΝ ΑΡΧΕΙΟ" style="text;html=1;align=center;verticalAlign=middle;resizable=0;points=[];autosize=1;strokeColor=none;fillColor=none;" vertex="1" parent="9J69JPXahBDmnuKBIGHt-9">
          <mxGeometry x="150" y="220" width="250" height="30" as="geometry" />
        </mxCell>
        <mxCell id="9J69JPXahBDmnuKBIGHt-19" value="ΠΑΡΑΘΥΡΟ 3" style="strokeWidth=1;shadow=0;dashed=0;align=center;html=1;shape=mxgraph.mockup.containers.window;align=left;verticalAlign=top;spacingLeft=8;strokeColor2=#008cff;strokeColor3=#c4c4c4;fontColor=#666666;mainText=;fontSize=17;labelBackgroundColor=none;whiteSpace=wrap;container=1;" vertex="1" parent="1">
          <mxGeometry x="110" y="1990" width="550" height="440" as="geometry" />
        </mxCell>
        <mxCell id="9J69JPXahBDmnuKBIGHt-21" value="&lt;i&gt;&lt;font style=&quot;font-size: 13px;&quot;&gt;Εισάγετε έδω...&lt;/font&gt;&lt;/i&gt;" style="strokeWidth=1;shadow=0;dashed=0;align=center;html=1;shape=mxgraph.mockup.text.textBox;fontColor=#666666;align=left;fontSize=17;spacingLeft=4;spacingTop=-3;whiteSpace=wrap;strokeColor=#666666;mainText=" vertex="1" parent="9J69JPXahBDmnuKBIGHt-19">
          <mxGeometry x="20" y="174.9973684210526" width="120" height="34.73684210526316" as="geometry" />
        </mxCell>
        <mxCell id="9J69JPXahBDmnuKBIGHt-22" value="ΔΡΑΣΤΗΡΙΟΤΗΤΕΣ&amp;nbsp;&lt;span style=&quot;color: rgb(255, 0, 0);&quot;&gt;{ΟΝΟΜΑ ΧΡΗΣΤΗ}&lt;/span&gt;" style="text;html=1;align=center;verticalAlign=middle;resizable=0;points=[];autosize=1;strokeColor=none;fillColor=none;" vertex="1" parent="9J69JPXahBDmnuKBIGHt-19">
          <mxGeometry x="155" y="29.995789473684212" width="240" height="30" as="geometry" />
        </mxCell>
        <mxCell id="9J69JPXahBDmnuKBIGHt-25" value="&lt;i&gt;&lt;font style=&quot;font-size: 13px;&quot;&gt;Εισάγετε έδω...&lt;/font&gt;&lt;/i&gt;" style="strokeWidth=1;shadow=0;dashed=0;align=center;html=1;shape=mxgraph.mockup.text.textBox;fontColor=#666666;align=left;fontSize=17;spacingLeft=4;spacingTop=-3;whiteSpace=wrap;strokeColor=#666666;mainText=" vertex="1" parent="9J69JPXahBDmnuKBIGHt-19">
          <mxGeometry x="150" y="174.9973684210526" width="120" height="34.73684210526316" as="geometry" />
        </mxCell>
        <mxCell id="9J69JPXahBDmnuKBIGHt-26" value="&lt;i&gt;&lt;font style=&quot;font-size: 13px;&quot;&gt;Εισάγετε έδω...&lt;/font&gt;&lt;/i&gt;" style="strokeWidth=1;shadow=0;dashed=0;align=center;html=1;shape=mxgraph.mockup.text.textBox;fontColor=#666666;align=left;fontSize=17;spacingLeft=4;spacingTop=-3;whiteSpace=wrap;strokeColor=#666666;mainText=" vertex="1" parent="9J69JPXahBDmnuKBIGHt-19">
          <mxGeometry x="280" y="174.9973684210526" width="120" height="34.73684210526316" as="geometry" />
        </mxCell>
        <mxCell id="9J69JPXahBDmnuKBIGHt-27" value="&lt;i&gt;&lt;font style=&quot;font-size: 13px;&quot;&gt;Εισάγετε έδω...&lt;/font&gt;&lt;/i&gt;" style="strokeWidth=1;shadow=0;dashed=0;align=center;html=1;shape=mxgraph.mockup.text.textBox;fontColor=#666666;align=left;fontSize=17;spacingLeft=4;spacingTop=-3;whiteSpace=wrap;strokeColor=#666666;mainText=" vertex="1" parent="9J69JPXahBDmnuKBIGHt-19">
          <mxGeometry x="410" y="174.9973684210526" width="120" height="34.73684210526316" as="geometry" />
        </mxCell>
        <mxCell id="9J69JPXahBDmnuKBIGHt-28" value="" style="shape=table;startSize=0;container=1;collapsible=0;childLayout=tableLayout;fontSize=16;fontColor=#ff0000;" vertex="1" parent="9J69JPXahBDmnuKBIGHt-19">
          <mxGeometry x="20" y="230" width="510" height="186.84" as="geometry" />
        </mxCell>
        <mxCell id="9J69JPXahBDmnuKBIGHt-29" value="" style="shape=tableRow;horizontal=0;startSize=0;swimlaneHead=0;swimlaneBody=0;strokeColor=inherit;top=0;left=0;bottom=0;right=0;collapsible=0;dropTarget=0;fillColor=none;points=[[0,0.5],[1,0.5]];portConstraint=eastwest;fontSize=16;" vertex="1" parent="9J69JPXahBDmnuKBIGHt-28">
          <mxGeometry width="510" height="37" as="geometry" />
        </mxCell>
        <mxCell id="9J69JPXahBDmnuKBIGHt-30" value="&lt;font color=&quot;#ff0000&quot;&gt;{LINE-1[1]}&lt;/font&gt;" style="shape=partialRectangle;html=1;whiteSpace=wrap;connectable=0;strokeColor=inherit;overflow=hidden;fillColor=none;top=0;left=0;bottom=0;right=0;pointerEvents=1;fontSize=16;" vertex="1" parent="9J69JPXahBDmnuKBIGHt-29">
          <mxGeometry width="128" height="37" as="geometry">
            <mxRectangle width="128" height="37" as="alternateBounds" />
          </mxGeometry>
        </mxCell>
        <mxCell id="9J69JPXahBDmnuKBIGHt-31" value="&lt;font color=&quot;#ff0000&quot;&gt;{LINE-1[2]}&lt;/font&gt;" style="shape=partialRectangle;html=1;whiteSpace=wrap;connectable=0;strokeColor=inherit;overflow=hidden;fillColor=none;top=0;left=0;bottom=0;right=0;pointerEvents=1;fontSize=16;" vertex="1" parent="9J69JPXahBDmnuKBIGHt-29">
          <mxGeometry x="128" width="127" height="37" as="geometry">
            <mxRectangle width="127" height="37" as="alternateBounds" />
          </mxGeometry>
        </mxCell>
        <mxCell id="9J69JPXahBDmnuKBIGHt-32" value="&lt;font color=&quot;#ff0000&quot;&gt;{LINE-1[3]}&lt;/font&gt;" style="shape=partialRectangle;html=1;whiteSpace=wrap;connectable=0;strokeColor=inherit;overflow=hidden;fillColor=none;top=0;left=0;bottom=0;right=0;pointerEvents=1;fontSize=16;" vertex="1" parent="9J69JPXahBDmnuKBIGHt-29">
          <mxGeometry x="255" width="128" height="37" as="geometry">
            <mxRectangle width="128" height="37" as="alternateBounds" />
          </mxGeometry>
        </mxCell>
        <mxCell id="9J69JPXahBDmnuKBIGHt-41" value="&lt;font color=&quot;#ff0000&quot;&gt;{LINE-1[4]}&lt;/font&gt;" style="shape=partialRectangle;html=1;whiteSpace=wrap;connectable=0;strokeColor=inherit;overflow=hidden;fillColor=none;top=0;left=0;bottom=0;right=0;pointerEvents=1;fontSize=16;" vertex="1" parent="9J69JPXahBDmnuKBIGHt-29">
          <mxGeometry x="383" width="127" height="37" as="geometry">
            <mxRectangle width="127" height="37" as="alternateBounds" />
          </mxGeometry>
        </mxCell>
        <mxCell id="9J69JPXahBDmnuKBIGHt-33" value="" style="shape=tableRow;horizontal=0;startSize=0;swimlaneHead=0;swimlaneBody=0;strokeColor=inherit;top=0;left=0;bottom=0;right=0;collapsible=0;dropTarget=0;fillColor=none;points=[[0,0.5],[1,0.5]];portConstraint=eastwest;fontSize=16;" vertex="1" parent="9J69JPXahBDmnuKBIGHt-28">
          <mxGeometry y="37" width="510" height="38" as="geometry" />
        </mxCell>
        <mxCell id="9J69JPXahBDmnuKBIGHt-34" value="&lt;font color=&quot;#ff0000&quot;&gt;{LINE-2[1]}&lt;/font&gt;" style="shape=partialRectangle;html=1;whiteSpace=wrap;connectable=0;strokeColor=inherit;overflow=hidden;fillColor=none;top=0;left=0;bottom=0;right=0;pointerEvents=1;fontSize=16;" vertex="1" parent="9J69JPXahBDmnuKBIGHt-33">
          <mxGeometry width="128" height="38" as="geometry">
            <mxRectangle width="128" height="38" as="alternateBounds" />
          </mxGeometry>
        </mxCell>
        <mxCell id="9J69JPXahBDmnuKBIGHt-35" value="&lt;font color=&quot;#ff1100&quot;&gt;{LINE-2[2]}&lt;/font&gt;" style="shape=partialRectangle;html=1;whiteSpace=wrap;connectable=0;strokeColor=inherit;overflow=hidden;fillColor=none;top=0;left=0;bottom=0;right=0;pointerEvents=1;fontSize=16;" vertex="1" parent="9J69JPXahBDmnuKBIGHt-33">
          <mxGeometry x="128" width="127" height="38" as="geometry">
            <mxRectangle width="127" height="38" as="alternateBounds" />
          </mxGeometry>
        </mxCell>
        <mxCell id="9J69JPXahBDmnuKBIGHt-36" value="&lt;font color=&quot;#ff0000&quot;&gt;{LINE-2[3]}&lt;/font&gt;" style="shape=partialRectangle;html=1;whiteSpace=wrap;connectable=0;strokeColor=inherit;overflow=hidden;fillColor=none;top=0;left=0;bottom=0;right=0;pointerEvents=1;fontSize=16;" vertex="1" parent="9J69JPXahBDmnuKBIGHt-33">
          <mxGeometry x="255" width="128" height="38" as="geometry">
            <mxRectangle width="128" height="38" as="alternateBounds" />
          </mxGeometry>
        </mxCell>
        <mxCell id="9J69JPXahBDmnuKBIGHt-42" value="&lt;font color=&quot;#ff0000&quot;&gt;{LINE-2[4]}&lt;/font&gt;" style="shape=partialRectangle;html=1;whiteSpace=wrap;connectable=0;strokeColor=inherit;overflow=hidden;fillColor=none;top=0;left=0;bottom=0;right=0;pointerEvents=1;fontSize=16;" vertex="1" parent="9J69JPXahBDmnuKBIGHt-33">
          <mxGeometry x="383" width="127" height="38" as="geometry">
            <mxRectangle width="127" height="38" as="alternateBounds" />
          </mxGeometry>
        </mxCell>
        <mxCell id="9J69JPXahBDmnuKBIGHt-37" value="" style="shape=tableRow;horizontal=0;startSize=0;swimlaneHead=0;swimlaneBody=0;strokeColor=inherit;top=0;left=0;bottom=0;right=0;collapsible=0;dropTarget=0;fillColor=none;points=[[0,0.5],[1,0.5]];portConstraint=eastwest;fontSize=16;" vertex="1" parent="9J69JPXahBDmnuKBIGHt-28">
          <mxGeometry y="75" width="510" height="37" as="geometry" />
        </mxCell>
        <mxCell id="9J69JPXahBDmnuKBIGHt-38" value="&lt;font color=&quot;#ff0000&quot;&gt;{LINE-3[1]}&lt;/font&gt;" style="shape=partialRectangle;html=1;whiteSpace=wrap;connectable=0;strokeColor=inherit;overflow=hidden;fillColor=none;top=0;left=0;bottom=0;right=0;pointerEvents=1;fontSize=16;" vertex="1" parent="9J69JPXahBDmnuKBIGHt-37">
          <mxGeometry width="128" height="37" as="geometry">
            <mxRectangle width="128" height="37" as="alternateBounds" />
          </mxGeometry>
        </mxCell>
        <mxCell id="9J69JPXahBDmnuKBIGHt-39" value="&lt;font color=&quot;#ff0000&quot;&gt;{LINE-3[2]}&lt;/font&gt;" style="shape=partialRectangle;html=1;whiteSpace=wrap;connectable=0;strokeColor=inherit;overflow=hidden;fillColor=none;top=0;left=0;bottom=0;right=0;pointerEvents=1;fontSize=16;" vertex="1" parent="9J69JPXahBDmnuKBIGHt-37">
          <mxGeometry x="128" width="127" height="37" as="geometry">
            <mxRectangle width="127" height="37" as="alternateBounds" />
          </mxGeometry>
        </mxCell>
        <mxCell id="9J69JPXahBDmnuKBIGHt-40" value="&lt;font color=&quot;#ff0000&quot;&gt;{LINE-3[3]}&lt;/font&gt;" style="shape=partialRectangle;html=1;whiteSpace=wrap;connectable=0;strokeColor=inherit;overflow=hidden;fillColor=none;top=0;left=0;bottom=0;right=0;pointerEvents=1;fontSize=16;" vertex="1" parent="9J69JPXahBDmnuKBIGHt-37">
          <mxGeometry x="255" width="128" height="37" as="geometry">
            <mxRectangle width="128" height="37" as="alternateBounds" />
          </mxGeometry>
        </mxCell>
        <mxCell id="9J69JPXahBDmnuKBIGHt-43" value="&lt;font color=&quot;#ff0000&quot;&gt;{LINE-3[4]}&lt;/font&gt;" style="shape=partialRectangle;html=1;whiteSpace=wrap;connectable=0;strokeColor=inherit;overflow=hidden;fillColor=none;top=0;left=0;bottom=0;right=0;pointerEvents=1;fontSize=16;" vertex="1" parent="9J69JPXahBDmnuKBIGHt-37">
          <mxGeometry x="383" width="127" height="37" as="geometry">
            <mxRectangle width="127" height="37" as="alternateBounds" />
          </mxGeometry>
        </mxCell>
        <mxCell id="9J69JPXahBDmnuKBIGHt-44" style="shape=tableRow;horizontal=0;startSize=0;swimlaneHead=0;swimlaneBody=0;strokeColor=inherit;top=0;left=0;bottom=0;right=0;collapsible=0;dropTarget=0;fillColor=none;points=[[0,0.5],[1,0.5]];portConstraint=eastwest;fontSize=16;" vertex="1" parent="9J69JPXahBDmnuKBIGHt-28">
          <mxGeometry y="112" width="510" height="37" as="geometry" />
        </mxCell>
        <mxCell id="9J69JPXahBDmnuKBIGHt-45" value="&lt;font color=&quot;#ff0000&quot;&gt;{LINE-4[1]}&lt;/font&gt;" style="shape=partialRectangle;html=1;whiteSpace=wrap;connectable=0;strokeColor=inherit;overflow=hidden;fillColor=none;top=0;left=0;bottom=0;right=0;pointerEvents=1;fontSize=16;" vertex="1" parent="9J69JPXahBDmnuKBIGHt-44">
          <mxGeometry width="128" height="37" as="geometry">
            <mxRectangle width="128" height="37" as="alternateBounds" />
          </mxGeometry>
        </mxCell>
        <mxCell id="9J69JPXahBDmnuKBIGHt-46" value="&lt;font color=&quot;#ff0000&quot;&gt;{LINE-4[2]}&lt;/font&gt;" style="shape=partialRectangle;html=1;whiteSpace=wrap;connectable=0;strokeColor=inherit;overflow=hidden;fillColor=none;top=0;left=0;bottom=0;right=0;pointerEvents=1;fontSize=16;" vertex="1" parent="9J69JPXahBDmnuKBIGHt-44">
          <mxGeometry x="128" width="127" height="37" as="geometry">
            <mxRectangle width="127" height="37" as="alternateBounds" />
          </mxGeometry>
        </mxCell>
        <mxCell id="9J69JPXahBDmnuKBIGHt-47" value="&lt;font color=&quot;#ff0000&quot;&gt;{LINE-4[3]}&lt;/font&gt;" style="shape=partialRectangle;html=1;whiteSpace=wrap;connectable=0;strokeColor=inherit;overflow=hidden;fillColor=none;top=0;left=0;bottom=0;right=0;pointerEvents=1;fontSize=16;" vertex="1" parent="9J69JPXahBDmnuKBIGHt-44">
          <mxGeometry x="255" width="128" height="37" as="geometry">
            <mxRectangle width="128" height="37" as="alternateBounds" />
          </mxGeometry>
        </mxCell>
        <mxCell id="9J69JPXahBDmnuKBIGHt-48" value="&lt;font color=&quot;#ff0000&quot;&gt;{LINE-4[4]}&lt;/font&gt;" style="shape=partialRectangle;html=1;whiteSpace=wrap;connectable=0;strokeColor=inherit;overflow=hidden;fillColor=none;top=0;left=0;bottom=0;right=0;pointerEvents=1;fontSize=16;" vertex="1" parent="9J69JPXahBDmnuKBIGHt-44">
          <mxGeometry x="383" width="127" height="37" as="geometry">
            <mxRectangle width="127" height="37" as="alternateBounds" />
          </mxGeometry>
        </mxCell>
        <mxCell id="9J69JPXahBDmnuKBIGHt-49" style="shape=tableRow;horizontal=0;startSize=0;swimlaneHead=0;swimlaneBody=0;strokeColor=inherit;top=0;left=0;bottom=0;right=0;collapsible=0;dropTarget=0;fillColor=none;points=[[0,0.5],[1,0.5]];portConstraint=eastwest;fontSize=16;" vertex="1" parent="9J69JPXahBDmnuKBIGHt-28">
          <mxGeometry y="149" width="510" height="38" as="geometry" />
        </mxCell>
        <mxCell id="9J69JPXahBDmnuKBIGHt-50" value="&lt;font color=&quot;#ff0000&quot;&gt;{LINE-5[1]}&lt;/font&gt;" style="shape=partialRectangle;html=1;whiteSpace=wrap;connectable=0;strokeColor=inherit;overflow=hidden;fillColor=none;top=0;left=0;bottom=0;right=0;pointerEvents=1;fontSize=16;" vertex="1" parent="9J69JPXahBDmnuKBIGHt-49">
          <mxGeometry width="128" height="38" as="geometry">
            <mxRectangle width="128" height="38" as="alternateBounds" />
          </mxGeometry>
        </mxCell>
        <mxCell id="9J69JPXahBDmnuKBIGHt-51" value="&lt;font color=&quot;#ff0000&quot;&gt;{LINE-5[2]}&lt;/font&gt;" style="shape=partialRectangle;html=1;whiteSpace=wrap;connectable=0;strokeColor=inherit;overflow=hidden;fillColor=none;top=0;left=0;bottom=0;right=0;pointerEvents=1;fontSize=16;" vertex="1" parent="9J69JPXahBDmnuKBIGHt-49">
          <mxGeometry x="128" width="127" height="38" as="geometry">
            <mxRectangle width="127" height="38" as="alternateBounds" />
          </mxGeometry>
        </mxCell>
        <mxCell id="9J69JPXahBDmnuKBIGHt-52" value="&lt;font color=&quot;#ff0000&quot;&gt;{LINE-5[3]}&lt;/font&gt;" style="shape=partialRectangle;html=1;whiteSpace=wrap;connectable=0;strokeColor=inherit;overflow=hidden;fillColor=none;top=0;left=0;bottom=0;right=0;pointerEvents=1;fontSize=16;" vertex="1" parent="9J69JPXahBDmnuKBIGHt-49">
          <mxGeometry x="255" width="128" height="38" as="geometry">
            <mxRectangle width="128" height="38" as="alternateBounds" />
          </mxGeometry>
        </mxCell>
        <mxCell id="9J69JPXahBDmnuKBIGHt-53" value="&lt;font color=&quot;#ff0000&quot;&gt;{LINE-5[4]}&lt;/font&gt;" style="shape=partialRectangle;html=1;whiteSpace=wrap;connectable=0;strokeColor=inherit;overflow=hidden;fillColor=none;top=0;left=0;bottom=0;right=0;pointerEvents=1;fontSize=16;" vertex="1" parent="9J69JPXahBDmnuKBIGHt-49">
          <mxGeometry x="383" width="127" height="38" as="geometry">
            <mxRectangle width="127" height="38" as="alternateBounds" />
          </mxGeometry>
        </mxCell>
        <mxCell id="9J69JPXahBDmnuKBIGHt-54" value="&lt;font style=&quot;font-size: 9px;&quot;&gt;ΟΝΟΜΑ ΔΡΑΣΤΗΡΙΟΤΗΤΑΣ&lt;/font&gt;" style="text;html=1;align=center;verticalAlign=middle;whiteSpace=wrap;rounded=0;" vertex="1" parent="9J69JPXahBDmnuKBIGHt-19">
          <mxGeometry x="50" y="140.26157894736843" width="60" height="34.73684210526316" as="geometry" />
        </mxCell>
        <mxCell id="9J69JPXahBDmnuKBIGHt-55" value="&lt;font style=&quot;font-size: 8px;&quot;&gt;ΒΑΘΜΟΣ ΣΗΜΑΝΤΙΚΟΤΗΤΑΣ&lt;/font&gt;" style="text;html=1;align=center;verticalAlign=middle;whiteSpace=wrap;rounded=0;" vertex="1" parent="9J69JPXahBDmnuKBIGHt-19">
          <mxGeometry x="180" y="140.26157894736843" width="60" height="34.73684210526316" as="geometry" />
        </mxCell>
        <mxCell id="9J69JPXahBDmnuKBIGHt-56" value="&lt;span style=&quot;font-size: 8px;&quot;&gt;ΔΙΑΡΚΕΙΑ&lt;/span&gt;" style="text;html=1;align=center;verticalAlign=middle;whiteSpace=wrap;rounded=0;" vertex="1" parent="9J69JPXahBDmnuKBIGHt-19">
          <mxGeometry x="310" y="140.26157894736843" width="60" height="34.73684210526316" as="geometry" />
        </mxCell>
        <mxCell id="9J69JPXahBDmnuKBIGHt-57" value="&lt;span style=&quot;font-size: 8px;&quot;&gt;ΕΙΔΟΣ&lt;/span&gt;" style="text;html=1;align=center;verticalAlign=middle;whiteSpace=wrap;rounded=0;" vertex="1" parent="9J69JPXahBDmnuKBIGHt-19">
          <mxGeometry x="430" y="140.26157894736843" width="60" height="34.73684210526316" as="geometry" />
        </mxCell>
        <mxCell id="9J69JPXahBDmnuKBIGHt-60" value="ΝΕΑ ΔΡΑΣΤΗΡΙΟΤΗΤΑ" style="rounded=1;html=1;shadow=0;dashed=0;whiteSpace=wrap;fontSize=10;fillColor=#666666;align=center;strokeColor=#4D4D4D;fontColor=#ffffff;" vertex="1" parent="9J69JPXahBDmnuKBIGHt-19">
          <mxGeometry x="206.12" y="90" width="137.75" height="16.88" as="geometry" />
        </mxCell>
        <mxCell id="9J69JPXahBDmnuKBIGHt-61" value="ΓΡΑΦΗΜΑΤΑ" style="rounded=1;html=1;shadow=0;dashed=0;whiteSpace=wrap;fontSize=10;fillColor=#666666;align=center;strokeColor=#4D4D4D;fontColor=#ffffff;" vertex="1" parent="9J69JPXahBDmnuKBIGHt-19">
          <mxGeometry x="206.12" y="60" width="137.75" height="16.88" as="geometry" />
        </mxCell>
        <mxCell id="9J69JPXahBDmnuKBIGHt-82" value="ΕΞΑΓΗΓΗ ΔΕΔΟΜΕΝΩΝ" style="rounded=1;html=1;shadow=0;dashed=0;whiteSpace=wrap;fontSize=10;fillColor=#666666;align=center;strokeColor=#4D4D4D;fontColor=#ffffff;" vertex="1" parent="9J69JPXahBDmnuKBIGHt-19">
          <mxGeometry x="206.12" y="120" width="137.75" height="16.88" as="geometry" />
        </mxCell>
        <mxCell id="9J69JPXahBDmnuKBIGHt-62" value="ΠΑΡΑΘΥΡΟ 4" style="strokeWidth=1;shadow=0;dashed=0;align=center;html=1;shape=mxgraph.mockup.containers.window;align=left;verticalAlign=top;spacingLeft=8;strokeColor2=#008cff;strokeColor3=#c4c4c4;fontColor=#666666;mainText=;fontSize=17;labelBackgroundColor=none;whiteSpace=wrap;container=1;" vertex="1" parent="1">
          <mxGeometry x="100" y="2620" width="550" height="380" as="geometry" />
        </mxCell>
        <mxCell id="9J69JPXahBDmnuKBIGHt-67" value="ΓΡΑΦΗΜΑΤΑ&amp;nbsp;&lt;span style=&quot;color: rgb(255, 0, 0);&quot;&gt;{ΟΝΟΜΑ ΧΡΗΣΤΗ}&lt;/span&gt;" style="text;html=1;align=center;verticalAlign=middle;resizable=0;points=[];autosize=1;strokeColor=none;fillColor=none;" vertex="1" parent="9J69JPXahBDmnuKBIGHt-62">
          <mxGeometry x="170" y="69.995789473684" width="200" height="30" as="geometry" />
        </mxCell>
        <mxCell id="9J69JPXahBDmnuKBIGHt-68" value="" style="whiteSpace=wrap;html=1;aspect=fixed;" vertex="1" parent="9J69JPXahBDmnuKBIGHt-62">
          <mxGeometry x="50" y="140" width="170" height="170" as="geometry" />
        </mxCell>
        <mxCell id="9J69JPXahBDmnuKBIGHt-69" value="" style="whiteSpace=wrap;html=1;aspect=fixed;" vertex="1" parent="9J69JPXahBDmnuKBIGHt-62">
          <mxGeometry x="325" y="140" width="170" height="170" as="geometry" />
        </mxCell>
      </root>
    </mxGraphModel>
  </diagram>
</mxfile>
